<?xml version="1.0" encoding="utf-8"?>
<!-- Generator: Adobe Illustrator 16.0.0, SVG Export Plug-In . SVG Version: 6.00 Build 0)  -->
<!DOCTYPE svg PUBLIC "-//W3C//DTD SVG 1.1 Basic//EN" "http://www.w3.org/Graphics/SVG/1.1/DTD/svg11-basic.dtd">
<svg version="1.1" baseProfile="basic" id="Layer_1"
	 xmlns="http://www.w3.org/2000/svg" xmlns:xlink="http://www.w3.org/1999/xlink" x="0px" y="0px" width="512px" height="512px"
	 viewBox="0 0 512 512" xml:space="preserve">
<g>
	<circle fill="#F0E639" cx="256" cy="256" r="256"/>
	<g>
		<g>
			<polygon fill="#C6CBCB" points="165.776,325.802 186.065,394.63 414.283,105.552 			"/>
			<polygon fill="#629B9B" points="165.776,325.802 186.065,394.63 270.436,287.76 254.771,246.93 			"/>
			<polygon fill="#D2D5D5" points="230.259,358.406 414.283,105.552 207.074,343.19 186.065,394.63 			"/>
			<polygon fill="#FFFFFF" points="414.283,105.552 325.894,418.538 207.074,343.19 			"/>
			<polygon fill="#FFFFFF" points="61.448,280.16 414.283,105.552 165.776,325.802 			"/>
			<polygon fill="#6EC6D6" points="206.963,343.1 325.894,418.538 329.002,407.538 288.416,249.904 			"/>
			<polygon fill="#6EC6D6" points="61.448,280.16 165.863,326.095 254.771,246.93 75.97,272.972 			"/>
			<polygon fill="#629B9B" points="282.452,256.729 329.002,407.538 288.416,249.904 			"/>
			<polygon fill="#629B9B" points="75.97,272.972 246.842,253.989 254.771,246.93 			"/>
			<polygon fill="#C6CBCB" points="212.492,372.97 230.521,358.044 206.963,343.1 			"/>
		</g>
		<polygon fill="#6EC6D6" points="414.283,105.552 398.43,123.733 405.522,136.578 		"/>
		<polygon fill="#6EC6D6" points="414.283,105.552 379.041,122.991 395.051,122.598 		"/>
	</g>
</g>
</svg>
